HIERARCHY
ROOT root
{
	OFFSET	0	13.1	24.9
	CHANNELS 6  Xposition Yposition Zposition Xrotation Yrotation Zrotation
	JOINT spine_1
	{
		OFFSET	0	9.99999	0
		CHANNELS 3  Xrotation Yrotation Zrotation
		JOINT spine_2
		{
			OFFSET	0	112	-10
			CHANNELS 3  Xrotation Yrotation Zrotation
			JOINT spine_3
			{
				OFFSET	0	206.5	19.3
				CHANNELS 3  Xrotation Yrotation Zrotation
				JOINT spine_4
				{
					OFFSET	0	110.4	14.6
					CHANNELS 3  Xrotation Yrotation Zrotation
					JOINT neck_1
					{
						OFFSET	0	71.8	-50.3
						CHANNELS 3  Xrotation Yrotation Zrotation
						JOINT neck_2
						{
							OFFSET	0	86.2	-25.8
							CHANNELS 3  Xrotation Yrotation Zrotation
							JOINT head_ee
							{
								OFFSET	0	179.8	-8.7
								CHANNELS 3  Xrotation Yrotation Zrotation
								End Site
								{
									OFFSET	1	0	0
								}
							}
						}
					}
					JOINT left_clavicle
					{
						OFFSET	-43.2	22.4	-70.8
						CHANNELS 3  Xrotation Yrotation Zrotation
						JOINT left_shoulder
						{
							OFFSET	-93.9	-5.79999	48.7
							CHANNELS 3  Xrotation Yrotation Zrotation
							JOINT left_elbow
							{
								OFFSET	-291.4	-30.8	15.2
								CHANNELS 3  Xrotation Yrotation Zrotation
								JOINT left_lowarm_twist
								{
									OFFSET	-110.7	-3.89999	13.6
									CHANNELS 3  Xrotation Yrotation Zrotation
									JOINT left_hand
									{
										OFFSET	-110.7	-3.89999	13.6
										CHANNELS 3  Xrotation Yrotation Zrotation
										JOINT left_ee
										{
											OFFSET	-80.8	-5.10001	12.1
											CHANNELS 3  Xrotation Yrotation Zrotation
											End Site
											{
												OFFSET	1	0	0
											}
										}
									}
								}
							}
						}
					}
					JOINT right_clavicle
					{
						OFFSET	43.2	22.4	-70.8
						CHANNELS 3  Xrotation Yrotation Zrotation
						JOINT right_shoulder
						{
							OFFSET	93.9	-5.79999	48.7
							CHANNELS 3  Xrotation Yrotation Zrotation
							JOINT right_elbow
							{
								OFFSET	291.4	-30.8	15.2
								CHANNELS 3  Xrotation Yrotation Zrotation
								JOINT right_lowarm_twist
								{
									OFFSET	110.7	-3.89999	13.6
									CHANNELS 3  Xrotation Yrotation Zrotation
									JOINT right_hand
									{
										OFFSET	110.7	-3.89999	13.6
										CHANNELS 3  Xrotation Yrotation Zrotation
										JOINT right_ee
										{
											OFFSET	80.8	-5.10001	12.1
											CHANNELS 3  Xrotation Yrotation Zrotation
											End Site
											{
												OFFSET	1	0	0
											}
										}
									}
								}
							}
						}
					}
				}
			}
		}
	}
	JOINT left_hip
	{
		OFFSET	-82.8	-127.5	0.300001
		CHANNELS 3  Xrotation Yrotation Zrotation
		JOINT left_knee
		{
			OFFSET	-28.2	-396.7	2.2
			CHANNELS 3  Xrotation Yrotation Zrotation
			JOINT left_ankle
			{
				OFFSET	-11.7	-411.3	35.4
				CHANNELS 3  Xrotation Yrotation Zrotation
				JOINT left_toes
				{
					OFFSET	0	-60	-88.6
					CHANNELS 3  Xrotation Yrotation Zrotation
					JOINT left_foot_ee
					{
						OFFSET	-22.5	-16.5	-42.2
						CHANNELS 3  Xrotation Yrotation Zrotation
						End Site
						{
							OFFSET	1	0	0
						}
					}
				}
			}
		}
	}
	JOINT right_hip
	{
		OFFSET	82.8	-127.5	0.300001
		CHANNELS 3  Xrotation Yrotation Zrotation
		JOINT right_knee
		{
			OFFSET	28.2	-396.7	2.2
			CHANNELS 3  Xrotation Yrotation Zrotation
			JOINT right_ankle
			{
				OFFSET	11.7	-411.3	35.4
				CHANNELS 3  Xrotation Yrotation Zrotation
				JOINT right_toes
				{
					OFFSET	0	-60	-88.6
					CHANNELS 3  Xrotation Yrotation Zrotation
					JOINT right_foot_ee
					{
						OFFSET	22.5	-16.5	-42.2
						CHANNELS 3  Xrotation Yrotation Zrotation
						End Site
						{
							OFFSET	1	0	0
						}
					}
				}
			}
		}
	}
}
MOTION
Frames: 6
Frame Time: 0.02
3561.69 755.559 -795.153 -21.9257 64.0161 13.5076 5.38248 0.130583 0.411955 5.38257 0.104105 0.41943 5.38324 0.0540909 0.428758 5.38301 0.121126 0.414835 -22.0535 2.88773 -1.83729 -22.1146 6.44016 -0.392544 -0.0 0.0 -0.0 -0.453762 14.3459 0.955461 -38.3551 -36.0394 65.9112 0.835911 -22.4936 0.166227 -2.85404 -0.109262 0.348013 -2.32756 20.1806 -5.68569 -0.0 0.0 -0.0 9.22051 17.8948 -17.8092 -24.2887 27.3011 -62.4028 0.781128 21.1538 -0.14586 14.3065 -0.28048 1.80128 -0.50566 -10.925 -1.29169 0.0 0.0 0.0 23.3665 3.30196 2.01267 -17.3689 0.31768 2.6363 8.23895 4.93043 -1.17973 1.51075 -0.0 -0.0 -0.0 0.0 -0.0 4.29171 -27.6239 7.26093 3.38389 0.154067 0.496284 13.1624 2.01571 1.87623 1.996 -0.0 -0.0 0.0 0.0 0.0 
3557.53 755.258 -798.209 -22.8757 65.1216 14.075 5.34925 0.182955 0.611204 5.34945 0.143692 0.621607 5.35081 0.0692871 0.634225 5.35029 0.16858 0.615324 -21.2288 4.37598 -1.92934 -21.3595 9.3802 0.141412 -0.0 0.0 -0.0 -0.66474 12.9487 0.429155 -37.2901 -33.2405 68.3239 0.878618 -23.5204 0.18292 -3.52461 -0.137443 0.428972 -2.77864 18.6407 -9.2088 -0.0 0.0 -0.0 9.21538 16.3893 -17.8866 -22.4655 28.0015 -61.4128 0.761816 20.6755 -0.138966 13.8279 -0.278416 1.74018 -0.495214 -9.6058 -0.801062 0.0 0.0 0.0 24.2267 1.6929 2.97019 -14.1339 0.319386 2.14002 10.7625 4.87321 -1.52776 1.46349 -0.0 -0.0 -0.0 0.0 -0.0 4.03174 -28.0857 7.3618 3.64319 0.16708 0.533933 14.355 1.02269 2.03061 2.58131 -0.0 -0.0 0.0 0.0 0.0 
3554.56 751.983 -799.524 -24.2209 65.9447 15.1671 5.15057 0.119584 0.787532 5.15091 0.0692303 0.793545 5.15156 -0.0277319 0.796076 5.15069 0.0983375 0.790466 -21.0583 5.48275 -0.615132 -21.2437 10.8768 1.83914 -0.0 0.0 -0.0 -0.989034 12.0173 -0.238244 -37.2524 -32.0231 69.6783 0.95463 -25.3088 0.214342 -3.38798 -0.131624 0.412503 -2.81468 18.373 -9.57293 -0.0 0.0 -0.0 9.3058 16.4799 -18.0815 -21.7161 28.422 -60.4102 0.856568 22.9922 -0.174213 13.4763 -0.276573 1.69531 -0.47815 -9.78918 -0.988053 0.0 0.0 0.0 25.1158 0.554096 3.54152 -11.2181 0.296923 1.69325 11.5813 4.75226 -1.63926 1.95854 -0.0 -0.0 -0.0 0.0 -0.0 3.63913 -27.5022 7.62013 4.10511 0.190685 0.600856 15.5585 0.996954 2.18956 3.46201 -0.0 -0.0 0.0 0.0 0.0 
3548.54 748.18 -801.242 -22.5686 66.5275 13.2695 4.97311 0.149005 1.03654 4.9737 0.0827491 1.04392 4.97471 -0.0479752 1.0461 4.9732 0.117829 1.04055 -20.9451 6.19274 -0.504232 -21.1774 12.1918 2.24874 -0.0 0.0 -0.0 -1.19807 11.5194 -0.661582 -36.8047 -29.9206 70.7956 0.936973 -24.8979 0.206851 -3.48412 -0.135715 0.424093 -2.97721 18.3862 -10.5626 -0.0 0.0 -0.0 9.49319 17.0015 -18.4673 -20.2722 28.9423 -60.6228 0.822928 22.1783 -0.161293 13.1098 -0.27436 1.64854 -0.446272 -9.75014 -1.176 0.0 0.0 0.0 26.8849 -0.456098 3.26059 -8.31944 0.25209 1.25078 12.1199 4.93897 -1.71177 2.01351 -0.0 -0.0 -0.0 0.0 -0.0 2.7615 -28.7374 8.11492 4.21349 0.196301 0.616531 16.3005 0.736583 2.28511 4.11581 -0.0 -0.0 0.0 0.0 0.0 
3542.96 745.92 -799.814 -24.4355 66.5358 14.6966 4.78764 0.16712 1.17036 4.78839 0.0923135 1.17862 4.78969 -0.0590837 1.18075 4.78776 0.128123 1.17527 -20.637 7.34515 -1.99176 -20.9832 15.1501 1.35635 -0.0 0.0 -0.0 -1.34421 11.3014 -0.941298 -36.672 -28.7259 72.1579 0.937397 -24.9078 0.20703 -3.24397 -0.125533 0.395129 -2.76058 18.0028 -9.44 -0.0 0.0 -0.0 9.44607 17.1336 -18.3552 -18.7402 29.4283 -59.5843 0.841572 22.6306 -0.168399 12.8337 -0.272495 1.61333 -0.596066 -8.91758 0.140169 0.0 0.0 0.0 27.6288 -1.27036 3.40232 -5.34917 0.182988 0.800248 12.1138 4.75739 -1.71123 1.65591 -0.0 -0.0 -0.0 0.0 -0.0 2.17431 -28.7059 8.03491 6.81704 0.340114 0.98982 17.0705 2.03296 2.39322 4.57619 -0.0 -0.0 0.0 0.0 0.0 
3536.06 744.357 -798.818 -25.2533 66.1369 15.0829 4.76367 0.213914 1.34586 4.76467 0.127848 1.35674 4.7669 -0.0471422 1.36193 4.76435 0.168521 1.35229 -20.3261 8.1772 -2.906 -20.7575 17.2178 0.844056 -0.0 0.0 -0.0 -1.24787 10.9575 -0.828201 -36.5304 -27.903 73.0921 0.932358 -24.7901 0.204912 -3.03691 -0.116853 0.370123 -2.59399 17.7465 -8.55335 -0.0 0.0 -0.0 9.45118 17.0716 -18.3701 -17.3905 29.8648 -59.1042 0.873165 23.3902 -0.180749 12.6571 -0.271212 1.5908 -0.684419 -8.25136 0.996509 0.0 0.0 0.0 28.0787 -1.49596 3.34728 -3.23577 0.119638 0.482112 12.4805 4.70291 -1.76067 1.58623 -0.0 -0.0 -0.0 0.0 -0.0 2.21311 -29.0023 8.56471 8.51567 0.443052 1.22976 17.6066 2.86128 2.46852 4.92992 -0.0 -0.0 0.0 0.0 0.0 
